<svg aria-hidden="true" style="width:0;height:0;position:absolute;overflow:hidden" xmlns="http://www.w3.org/2000/svg"><defs><symbol id="icon-svglike" viewBox="0 0 34 32"><path fill="#ff6b08" style="fill:var(--color1,#ff6b08)" d="m17.231 31.705-2.412-2.412C5.859 21.367.001 16.025.001 9.478.001 4.136 4.136.001 9.478.001c2.929 0 5.858 1.378 7.754 3.618 1.895-2.24 4.825-3.618 7.754-3.618 5.342 0 9.477 4.135 9.477 9.477 0 6.548-5.858 11.889-14.818 19.815l-2.412 2.412z"/></symbol><symbol id="icon-svgclose_24px" viewBox="0 0 32 32"><path d="M31.439 3.166 28.273 0 15.72 12.553 3.167 0 .001 3.166l12.553 12.553L.001 28.272l3.166 3.166L15.72 18.885l12.553 12.553 3.166-3.166-12.553-12.553L31.439 3.166z"/></symbol><symbol id="icon-svggethub" viewBox="0 0 32 32"><path d="M13.723 24.605c.889.231 1.822.354 2.784.354 1.033 0 2.716-.327 2.716-.327l-.014-.797s.014-1.557.014-3.037c0-1.033-.354-1.708-.752-2.05 2.466-.274 5.054-1.21 5.054-5.463 0-1.208-.428-2.197-1.138-2.97.114-.28.494-1.406-.11-2.93 0 0-.928-.298-3.041 1.135a10.668 10.668 0 0 0-2.771-.373c-.941.004-1.889.127-2.771.373-2.115-1.432-3.044-1.135-3.044-1.135-.602 1.524-.222 2.65-.108 2.93-.708.774-1.139 1.762-1.139 2.97 0 4.242 2.584 5.192 5.042 5.471-.316.277-.602.764-.703 1.48-.631.283-2.234.772-3.222-.92 0 0-.585-1.062-1.695-1.141 0 0-1.081-.014-.076.673 0 0 .726.34 1.229 1.619 0 0 .65 2.153 3.729 1.484.005.924.015 1.62.015 1.883z"/></symbol><symbol id="icon-svginstagram" viewBox="0 0 32 32"><path d="M19.395 8h-6.789a4.61 4.61 0 0 0-4.605 4.605v6.852a4.61 4.61 0 0 0 4.605 4.605h6.789A4.61 4.61 0 0 0 24 19.457v-6.852A4.61 4.61 0 0 0 19.395 8zm3.081 11.457a3.084 3.084 0 0 1-3.081 3.081h-6.789a3.084 3.084 0 0 1-3.081-3.081v-6.852a3.084 3.084 0 0 1 3.081-3.081h6.789a3.084 3.084 0 0 1 3.081 3.081v6.852zm-6.463-7.587c-2.303 0-4.176 1.854-4.176 4.132s1.873 4.132 4.176 4.132 4.176-1.854 4.176-4.132-1.874-4.132-4.176-4.132zm0 6.742c-1.464 0-2.655-1.171-2.655-2.611s1.191-2.611 2.655-2.611c1.464 0 2.655 1.171 2.655 2.611s-1.191 2.611-2.655 2.611zm5.234-6.911a.983.983 0 1 1-1.966 0 .983.983 0 0 1 1.966 0z"/></symbol><symbol id="icon-svglinkedin" viewBox="0 0 32 32"><path d="M24 17.694v5.915h-3.429V18.09c0-1.386-.496-2.332-1.737-2.332-.948 0-1.511.638-1.76 1.255-.09.221-.114.528-.114.836v5.761h-3.431s.046-9.348 0-10.316h3.43v1.462l-.023.033h.023v-.033c.456-.702 1.27-1.705 3.091-1.705 2.258 0 3.949 1.475 3.949 4.643zM9.941 8.32C8.767 8.32 8 9.09 8 10.102c0 .99.745 1.783 1.896 1.783h.023c1.196 0 1.94-.793 1.94-1.783-.022-1.012-.744-1.782-1.918-1.782zM8.204 23.609h3.429V13.293H8.204v10.316z"/></symbol><symbol id="icon-search-2" viewBox="0 0 32 32"><path fill="none" stroke="#fff" style="stroke:var(--color1,#fff)" stroke-linejoin="round" stroke-linecap="round" stroke-width="2.667" d="M14.667 25.333c5.891 0 10.667-4.776 10.667-10.667S20.558 3.999 14.667 3.999 4 8.775 4 14.666s4.776 10.667 10.667 10.667zM28 28.001l-5.8-5.8"/></symbol><symbol id="icon-film" viewBox="0 0 32 32"><path fill="none" stroke="#fff" style="stroke:var(--color1,#fff)" stroke-linejoin="round" stroke-linecap="round" stroke-width="2.667" d="M26.427 3.606H5.574c-1.605 0-2.907 1.239-2.907 2.768V26.23c0 1.529 1.301 2.768 2.907 2.768h20.853c1.605 0 2.907-1.239 2.907-2.768V6.374c0-1.529-1.301-2.768-2.907-2.768zM9.333 3.606v25.391M22.667 3.606v25.391M2.667 16.301h26.667M2.667 9.954h6.667M2.667 22.649h6.667M22.667 22.649h6.667M22.667 9.954h6.667"/></symbol><symbol id="svgcheck-mark" viewBox="0 0 32 32"><path d="M29.628 10.863a.5.5 0 0 0-.32.63c.473 1.45.713 2.966.713 4.506 0 3.876-1.509 7.52-4.25 10.26s-6.385 4.25-10.26 4.25-7.52-1.509-10.26-4.25-4.25-6.385-4.25-10.26 1.509-7.52 4.25-10.26 6.385-4.25 10.26-4.25c2.056 0 4.042.421 5.903 1.251a14.448 14.448 0 0 1 4.738 3.395.5.5 0 0 0 .734-.68 15.452 15.452 0 0 0-5.064-3.628A15.392 15.392 0 0 0 15.511.489c-4.143 0-8.038 1.613-10.967 4.543S.001 11.856.001 15.999c0 4.143 1.613 8.038 4.543 10.967s6.824 4.543 10.967 4.543 8.038-1.613 10.967-4.543a15.408 15.408 0 0 0 4.543-10.967c0-1.646-.257-3.266-.763-4.816a.5.5 0 0 0-.631-.32z"/><path d="M31.561 5.204c-.283-.284-.66-.44-1.061-.44s-.778.156-1.061.44l-.448.448a.5.5 0 0 0 .707.707l.448-.448c.094-.095.22-.146.354-.146s.259.052.354.147a.496.496 0 0 1 0 .708L13.613 23.861c-.094.095-.22.146-.354.146s-.259-.052-.354-.147l-6.733-6.733a.496.496 0 0 1 0-.708c.094-.095.22-.146.354-.146s.259.052.354.147l6.026 6.026a.5.5 0 0 0 .708 0L28.292 7.768a.5.5 0 0 0-.707-.707L13.26 21.385l-5.672-5.672c-.283-.284-.66-.44-1.061-.44s-.778.156-1.061.44c-.284.284-.44.66-.44 1.061s.156.778.44 1.061l6.733 6.733c.283.284.66.44 1.061.44s.778-.156 1.061-.44l17.24-17.241c.284-.284.44-.66.44-1.061s-.156-.778-.439-1.061z"/></symbol></defs></svg>