<svg aria-hidden="true" style="position: absolute; width: 0; height: 0; overflow: hidden;" version="1.1" xmlns="http://www.w3.org/2000/svg" xmlns:xlink="http://www.w3.org/1999/xlink">
<defs>
<symbol id="icon-svglike" viewBox="0 0 34 32">
<path fill="#ff6b08" style="fill: var(--color1, #ff6b08)" d="M17.231 31.705l-2.412-2.412c-8.96-7.926-14.818-13.268-14.818-19.815 0-5.342 4.135-9.477 9.477-9.477 2.929 0 5.858 1.378 7.754 3.618 1.895-2.24 4.825-3.618 7.754-3.618 5.342 0 9.477 4.135 9.477 9.477 0 6.548-5.858 11.889-14.818 19.815l-2.412 2.412z"></path>
</symbol>
<symbol id="icon-svgclose_24px" viewBox="0 0 32 32">
<path d="M31.439 3.166l-3.166-3.166-12.553 12.553-12.553-12.553-3.166 3.166 12.553 12.553-12.553 12.553 3.166 3.166 12.553-12.553 12.553 12.553 3.166-3.166-12.553-12.553 12.553-12.553z"></path>
</symbol>
<symbol id="icon-svggethub" viewBox="0 0 32 32">
<path d="M13.723 24.605c0.889 0.231 1.822 0.354 2.784 0.354 1.033 0 2.716-0.327 2.716-0.327l-0.014-0.797c0 0 0.014-1.557 0.014-3.037 0-1.033-0.354-1.708-0.752-2.050 2.466-0.274 5.054-1.21 5.054-5.463 0-1.208-0.428-2.197-1.138-2.97 0.114-0.28 0.494-1.406-0.11-2.93 0 0-0.928-0.298-3.041 1.135-0.884-0.245-1.831-0.368-2.771-0.373-0.941 0.004-1.889 0.127-2.771 0.373-2.115-1.432-3.044-1.135-3.044-1.135-0.602 1.524-0.222 2.65-0.108 2.93-0.708 0.774-1.139 1.762-1.139 2.97 0 4.242 2.584 5.192 5.042 5.471-0.316 0.277-0.602 0.764-0.703 1.48-0.631 0.283-2.234 0.772-3.222-0.92 0 0-0.585-1.062-1.695-1.141 0 0-1.081-0.014-0.076 0.673 0 0 0.726 0.34 1.229 1.619 0 0 0.65 2.153 3.729 1.484 0.005 0.924 0.015 1.62 0.015 1.883z"></path>
</symbol>
<symbol id="icon-svginstagram" viewBox="0 0 32 32">
<path d="M19.395 8h-6.789c-2.539 0-4.605 2.066-4.605 4.605v6.852c0 2.539 2.066 4.605 4.605 4.605h6.789c2.54 0 4.605-2.066 4.605-4.605v-6.852c0-2.539-2.066-4.605-4.605-4.605zM22.476 19.457c0 1.699-1.382 3.081-3.081 3.081h-6.789c-1.699 0-3.081-1.382-3.081-3.081v-6.852c0-1.699 1.382-3.081 3.081-3.081h6.789c1.699 0 3.081 1.382 3.081 3.081v6.852zM16.013 11.87c-2.303 0-4.176 1.854-4.176 4.132s1.873 4.132 4.176 4.132c2.303 0 4.176-1.854 4.176-4.132s-1.874-4.132-4.176-4.132zM16.013 18.612c-1.464 0-2.655-1.171-2.655-2.611s1.191-2.611 2.655-2.611c1.464 0 2.655 1.171 2.655 2.611s-1.191 2.611-2.655 2.611zM21.247 11.701c0 0.543-0.44 0.983-0.983 0.983s-0.983-0.44-0.983-0.983c0-0.543 0.44-0.983 0.983-0.983s0.983 0.44 0.983 0.983z"></path>
</symbol>
<symbol id="icon-svglinkedin" viewBox="0 0 32 32">
<path d="M24 17.694v5.915h-3.429v-5.519c0-1.386-0.496-2.332-1.737-2.332-0.948 0-1.511 0.638-1.76 1.255-0.090 0.221-0.114 0.528-0.114 0.836v5.761h-3.431c0 0 0.046-9.348 0-10.316h3.43v1.462c-0.007 0.011-0.016 0.023-0.023 0.033h0.023v-0.033c0.456-0.702 1.27-1.705 3.091-1.705 2.258 0 3.949 1.475 3.949 4.643zM9.941 8.32c-1.174 0-1.941 0.77-1.941 1.782 0 0.99 0.745 1.783 1.896 1.783h0.023c1.196 0 1.94-0.793 1.94-1.783-0.022-1.012-0.744-1.782-1.918-1.782zM8.204 23.609h3.429v-10.316h-3.429v10.316z"></path>
</symbol>
<symbol id="icon-search-2" viewBox="0 0 32 32">
<path fill="none" stroke="#fff" style="stroke: var(--color1, #fff)" stroke-linejoin="round" stroke-linecap="round" stroke-miterlimit="4" stroke-width="2.6667" d="M14.667 25.333c5.891 0 10.667-4.776 10.667-10.667s-4.776-10.667-10.667-10.667c-5.891 0-10.667 4.776-10.667 10.667s4.776 10.667 10.667 10.667z"></path>
<path fill="none" stroke="#fff" style="stroke: var(--color1, #fff)" stroke-linejoin="round" stroke-linecap="round" stroke-miterlimit="4" stroke-width="2.6667" d="M28 28.001l-5.8-5.8"></path>
</symbol>
<symbol id="icon-film" viewBox="0 0 32 32">
<path fill="none" stroke="#fff" style="stroke: var(--color1, #fff)" stroke-linejoin="round" stroke-linecap="round" stroke-miterlimit="4" stroke-width="2.6667" d="M26.427 3.606h-20.853c-1.605 0-2.907 1.239-2.907 2.768v19.856c0 1.529 1.301 2.768 2.907 2.768h20.853c1.605 0 2.907-1.239 2.907-2.768v-19.856c0-1.529-1.301-2.768-2.907-2.768z"></path>
<path fill="none" stroke="#fff" style="stroke: var(--color1, #fff)" stroke-linejoin="round" stroke-linecap="round" stroke-miterlimit="4" stroke-width="2.6667" d="M9.333 3.606v25.391"></path>
<path fill="none" stroke="#fff" style="stroke: var(--color1, #fff)" stroke-linejoin="round" stroke-linecap="round" stroke-miterlimit="4" stroke-width="2.6667" d="M22.667 3.606v25.391"></path>
<path fill="none" stroke="#fff" style="stroke: var(--color1, #fff)" stroke-linejoin="round" stroke-linecap="round" stroke-miterlimit="4" stroke-width="2.6667" d="M2.667 16.301h26.667"></path>
<path fill="none" stroke="#fff" style="stroke: var(--color1, #fff)" stroke-linejoin="round" stroke-linecap="round" stroke-miterlimit="4" stroke-width="2.6667" d="M2.667 9.954h6.667"></path>
<path fill="none" stroke="#fff" style="stroke: var(--color1, #fff)" stroke-linejoin="round" stroke-linecap="round" stroke-miterlimit="4" stroke-width="2.6667" d="M2.667 22.649h6.667"></path>
<path fill="none" stroke="#fff" style="stroke: var(--color1, #fff)" stroke-linejoin="round" stroke-linecap="round" stroke-miterlimit="4" stroke-width="2.6667" d="M22.667 22.649h6.667"></path>
<path fill="none" stroke="#fff" style="stroke: var(--color1, #fff)" stroke-linejoin="round" stroke-linecap="round" stroke-miterlimit="4" stroke-width="2.6667" d="M22.667 9.954h6.667"></path>
</symbol>
<symbol id="svgcheck-mark" viewBox="0 0 32 32">
<path d="M29.628 10.863c-0.263 0.086-0.406 0.368-0.32 0.63 0.473 1.45 0.713 2.966 0.713 4.506 0 3.876-1.509 7.52-4.25 10.26s-6.385 4.25-10.26 4.25-7.52-1.509-10.26-4.25-4.25-6.385-4.25-10.26 1.509-7.52 4.25-10.26 6.385-4.25 10.26-4.25c2.056 0 4.042 0.421 5.903 1.251 1.799 0.802 3.393 1.944 4.738 3.395 0.188 0.202 0.504 0.214 0.707 0.027s0.214-0.504 0.027-0.707c-1.438-1.55-3.141-2.771-5.064-3.628-1.991-0.888-4.114-1.338-6.311-1.338-4.143 0-8.038 1.613-10.967 4.543s-4.543 6.824-4.543 10.967c0 4.143 1.613 8.038 4.543 10.967s6.824 4.543 10.967 4.543 8.038-1.613 10.967-4.543c2.93-2.93 4.543-6.825 4.543-10.967 0-1.646-0.257-3.266-0.763-4.816-0.086-0.262-0.368-0.406-0.631-0.32z"></path>
<path d="M31.561 5.204c-0.283-0.284-0.66-0.44-1.061-0.44s-0.778 0.156-1.061 0.44l-0.448 0.448c-0.195 0.195-0.195 0.512 0 0.707s0.512 0.195 0.707-0l0.448-0.448c0.094-0.095 0.22-0.146 0.354-0.146s0.259 0.052 0.354 0.147c0.095 0.095 0.147 0.22 0.147 0.354s-0.052 0.259-0.147 0.354l-17.241 17.241c-0.094 0.095-0.22 0.146-0.354 0.146s-0.259-0.052-0.354-0.147l-6.733-6.733c-0.095-0.095-0.147-0.22-0.147-0.354s0.052-0.259 0.147-0.354c0.094-0.095 0.22-0.146 0.354-0.146s0.259 0.052 0.354 0.147l6.026 6.026c0.094 0.094 0.221 0.146 0.354 0.146s0.26-0.053 0.354-0.146l14.678-14.678c0.195-0.195 0.195-0.512 0-0.707s-0.512-0.195-0.707 0l-14.325 14.324-5.672-5.672c-0.283-0.284-0.66-0.44-1.061-0.44s-0.778 0.156-1.061 0.44c-0.284 0.284-0.44 0.66-0.44 1.061s0.156 0.778 0.44 1.061l6.733 6.733c0.283 0.284 0.66 0.44 1.061 0.44s0.778-0.156 1.061-0.44l17.24-17.241c0.284-0.284 0.44-0.66 0.44-1.061s-0.156-0.778-0.439-1.061z"></path>
</symbol>
</defs>
</svg>
